<svg xmlns="http://www.w3.org/2000/svg" version="1.1" xmlns:xlink="http://www.w3.org/1999/xlink" width="1000" height="1000"><g clip-path="url(#SvgjsClipPath1527)"><rect width="1000" height="1000" fill="#101822"></rect><g transform="matrix(2,0,0,2,100,100)"><svg xmlns="http://www.w3.org/2000/svg" version="1.1" xmlns:xlink="http://www.w3.org/1999/xlink" width="400" height="400"><svg xmlns="http://www.w3.org/2000/svg" version="1.1" viewBox="0 0 400 400">
  <!-- Generator: Adobe Illustrator 29.6.0, SVG Export Plug-In . SVG Version: 2.1.1 Build 207)  -->
  <defs>
    <style>
      .st0 {
        opacity: .4;
      }

      .st1 {
        fill: #1b2838;
      }

      .st2 {
        fill: #67c1f5;
      }
    </style>
  <clipPath id="SvgjsClipPath1527"><rect width="1000" height="1000" x="0" y="0" rx="500" ry="500"></rect></clipPath></defs>
  <g id="Layer_3">
    <rect class="st1" width="400" height="400"></rect>
  </g>
  <g id="Layer_2">
    <rect class="st0" width="400" height="400"></rect>
  </g>
  <g id="Layer_1">
    <g>
      <path class="st2" d="M263.6,375c-8.8,0-15.9-7.1-15.9-15.9v-63.6c0-26.3-21.4-47.7-47.7-47.7h-95.5c-26.3,0-47.7,21.4-47.7,47.7v63.6c0,8.8-7.1,15.9-15.9,15.9s-15.9-7.1-15.9-15.9v-63.6c0-43.9,35.7-79.5,79.5-79.5h95.5c43.9,0,79.5,35.7,79.5,79.5v63.6c0,8.8-7.1,15.9-15.9,15.9Z"></path>
      <path class="st2" d="M263.6,182.1c-7.1,0-13.5-4.7-15.4-11.9-2.2-8.5,2.9-17.2,11.4-19.4,16.8-4.4,29.9-17.5,34.2-34.2,6.6-25.5-8.7-51.6-34.2-58.2-8.5-2.2-13.6-10.9-11.4-19.4,2.2-8.5,10.9-13.6,19.4-11.4,42.5,11,68,54.5,57,97-7.2,27.9-29.1,49.8-57,57-1.3.3-2.7.5-4,.5Z"></path>
      <path class="st2" d="M359.1,375c-8.8,0-15.9-7.1-15.9-15.9v-63.6c0-21.7-14.7-40.7-35.8-46.2-8.5-2.2-13.6-10.9-11.4-19.4,2.2-8.5,10.9-13.7,19.4-11.4,35.1,9.1,59.6,40.7,59.7,77v63.7c0,8.8-7.1,15.9-15.9,15.9Z"></path>
      <path class="st2" d="M152.3,184.1c-43.9,0-79.5-35.7-79.5-79.5S108.4,25,152.3,25s79.5,35.7,79.5,79.5-35.7,79.5-79.5,79.5ZM152.3,56.8c-26.3,0-47.7,21.4-47.7,47.7s21.4,47.7,47.7,47.7,47.7-21.4,47.7-47.7-21.4-47.7-47.7-47.7Z"></path>
    </g>
  </g>
</svg></svg></g></g></svg>